<svg xmlns="http://www.w3.org/2000/svg" width="94" height="94" viewBox="0 0 94 94"><defs><clipPath id="a"><path fill="#fff" d="M3662 2078v-94h94v94z"/></clipPath></defs><path fill="none" d="M0 94V0h94v94z"/><path fill="none" stroke="#fff" stroke-linecap="round" stroke-linejoin="round" stroke-miterlimit="50" stroke-opacity=".8" stroke-width="8" d="M3662 2078v-94h94v94z" clip-path="url(&quot;#a&quot;)" transform="translate(-3662 -1984)"/><path fill="#fff" d="M66.92 28.64a5.23 5.23 0 0 0-3.82-1.6H31.82c-1.48 0-2.74.54-3.8 1.6a5.3 5.3 0 0 0-1.6 3.84v31.6c0 1.5.54 2.78 1.6 3.86a5.18 5.18 0 0 0 3.8 1.6H63.1c1.48 0 2.76-.54 3.82-1.6a5.3 5.3 0 0 0 1.58-3.86v-31.6c0-1.48-.52-2.76-1.58-3.84zM41.54 42.36a8.18 8.18 0 0 1 5.96-2.42c2.32 0 4.32.8 5.98 2.42a7.9 7.9 0 0 1 2.48 5.84c0 2.3-.84 4.24-2.48 5.86a8.34 8.34 0 0 1-5.98 2.42 8.26 8.26 0 0 1-5.96-2.42 7.86 7.86 0 0 1-2.48-5.86c0-2.28.82-4.24 2.48-5.84zm21.7 21.8c-.32.32-.72.48-1.18.48H32.78a1.63 1.63 0 0 1-1.68-1.68V45.02h3.86a12.2 12.2 0 0 0-.54 3.62 12.2 12.2 0 0 0 3.84 9.06 12.76 12.76 0 0 0 9.24 3.76c2.36 0 4.56-.58 6.56-1.72 2.02-1.14 3.6-2.7 4.78-4.66a12.4 12.4 0 0 0 1.74-6.44c0-1.24-.18-2.46-.54-3.62h3.7v17.94c0 .48-.16.88-.5 1.2zm.5-25.92c0 .54-.18 1-.56 1.36-.36.36-.8.56-1.34.56h-4.76c-.54 0-.98-.2-1.34-.56a1.87 1.87 0 0 1-.56-1.36v-4.56c0-.52.2-.96.56-1.34.36-.38.8-.58 1.34-.58h4.76c.54 0 .98.2 1.34.58.38.38.56.82.56 1.34z"/></svg>