<svg xmlns="http://www.w3.org/2000/svg" width="100" height="100" viewBox="0 0 100 100"><path fill="#57a92f" d="M29 58v-3h3v3zm0 10v-7h3v7zm40.35 1.36v1.6h-3.22v-1.6a4.84 4.84 0 0 0-4.84-4.84h-3.23a4.84 4.84 0 0 0 0 9.67h3.23a8.07 8.07 0 0 1 0 16.13v3.23h-3.23v-3.23A8.07 8.07 0 0 1 50 82.26v-1.61h3.23v1.6a4.84 4.84 0 0 0 4.83 4.85h3.23a4.84 4.84 0 0 0 0-9.68h-3.23a8.07 8.07 0 0 1 0-16.13v-3.23h3.23v3.23a8.07 8.07 0 0 1 8.06 8.07zM100 87.1V100H0v-9.68h3.23V76.78c0-8.15 4.41-15.69 11.51-19.68L27.35 50l-12.61-7.1A22.61 22.61 0 0 1 3.23 23.22V9.68H0V0h61.29v9.68h-3.23v13.54c0 8.15-4.41 15.69-11.51 19.68L33.94 50l11.36 6.4a24.05 24.05 0 0 1 14.38-4.79 24.2 24.2 0 0 1 22.78 16.13h14.31v12.9h-3.22v6.46zM83.38 70.97c.32 1.56.49 3.18.49 4.84 0 .54-.05 1.07-.08 1.6h9.76v-6.44h-3.23v3.22H87.1v-3.22zM81.06 87.1h9.26v-6.46H87.1v3.23h-3.23v-3.23h-.49a23.85 23.85 0 0 1-2.32 6.46zM3.23 6.45h54.83V3.23H3.23zm27.42 41.7l14.32-8.06a19.38 19.38 0 0 0 8.38-9.45h-1.74v-3.22h2.73c.3-1.37.5-2.77.5-4.2V9.68H6.45v13.54c0 1.43.2 2.83.5 4.2h41.44v3.22H7.94a19.38 19.38 0 0 0 8.38 9.45zM6.45 81.06l11.36-6.62a25.54 25.54 0 0 1 18.07-2.89c.9-5.01 3.32-9.5 6.8-12.93l-12.03-6.77-14.33 8.06a19.37 19.37 0 0 0-9.87 16.87zm0 9.26h33.92a24.05 24.05 0 0 1-4.89-14.51c0-.35.04-.69.06-1.03a22.33 22.33 0 0 0-16.11 2.44L6.45 84.8zm41.21 6.45c-1.58-.9-3.04-2-4.37-3.22H3.23v3.22zm12.02 0a21 21 0 0 0 20.97-20.96 21 21 0 0 0-20.97-20.97A21 21 0 0 0 38.71 75.8a21 21 0 0 0 20.97 20.96zm37.09-6.45h-3.22v3.23h-3.23v-3.23H87.1v3.23h-3.23v-3.23h-3.22v3.23h-3.23V92.2a24.33 24.33 0 0 1-5.72 4.57h25.07z"/></svg>