<svg xmlns="http://www.w3.org/2000/svg" width="20" height="15" viewBox="0 0 20 15"><path fill="#d6b46d" d="M6.62 8.23c.04-.01.06-.05.06-.1 0-.06-.03-.1-.08-.12L1.23 5.23a.36.36 0 0 0-.16 0 .13.13 0 0 0-.08.13v7.3c0 .04.04.09.1.12h.06c.06 0 .1-.01.1-.03zm6.54.53c-.05-.06-.1-.07-.19-.02l-2.05 1.1a.82.82 0 0 1-.79 0L8.31 8.9c-.06-.04-.12-.03-.18.02L1.3 14.68a.12.12 0 0 0-.07.11c0 .05.03.09.09.11.1.06.2.1.3.1h17.55c.06 0 .12-.04.16-.1.01-.05 0-.1-.04-.14zm6.6-3.64l-5.13 2.73a.12.12 0 0 0-.06.1c-.02.04 0 .08.04.12l5.1 4.99c.04.03.08.05.12.05.03 0 .05 0 .06-.02.07-.02.1-.06.1-.12V5.25c0-.06-.02-.1-.08-.13-.07-.03-.12-.03-.16 0zm.05-3.96c.12.1.18.24.18.4v1.75c0 .09-.04.13-.14.13a.5.5 0 0 0-.22.1l-9.04 4.8-.08.02c-.04 0-.06 0-.08-.02l-9.32-4.8c-.08-.05-.12-.1-.12-.15V1.56c0-.16.06-.3.19-.4a.64.64 0 0 1 .44-.17h17.73c.19 0 .34.06.46.17z"/></svg>