<svg xmlns="http://www.w3.org/2000/svg" width="100" height="100" viewBox="0 0 100 100"><path fill="#57a92f" d="M46.83 34.99c-.1 1.55-.16 3.2-.16 5.01 0 8.35 2.49 13.33 6.66 13.33 5.27 0 6.67-6.28 6.67-10a1.67 1.67 0 0 0-3.33 0c0 .07-.15 6.67-3.34 6.67C51.4 50 50 45.8 50 40c0-19.43 6.82-21.64 7.04-21.7a1.67 1.67 0 0 0-.7-3.27c-.33.07-1.54.39-3 1.63A3.3 3.3 0 0 1 55 13.78 3.31 3.31 0 0 1 59.56 15c.92 1.6.38 3.63-1.22 4.55A1.67 1.67 0 0 0 60 22.44a6.68 6.68 0 1 0-9.77-7.5 6.64 6.64 0 0 0 .55 4.8c-1.43 2.33-2.76 5.8-3.5 10.95A16.8 16.8 0 0 1 43.32 20c0-9.19 7.48-16.67 16.67-16.67 9.19 0 16.67 7.48 16.67 16.67A16.68 16.68 0 0 1 54.7 35.81a1.67 1.67 0 0 0-1.05 3.16A20.02 20.02 0 0 0 80 20C79.99 8.97 71.02 0 59.99 0 48.97 0 40 8.97 40 20c0 5.68 2.55 11.2 6.83 14.99zm52.68 13.83l-17.3-17.3a1.67 1.67 0 0 0-2.36 2.35l16.82 16.82v5.98h-5.98l-.69-.7v-4.3c0-.92-.75-1.67-1.67-1.67h-1.66v-1.67c0-.92-.75-1.66-1.67-1.66h-4.3l-.7-.7v-4.3c0-.92-.75-1.67-1.67-1.67h-4.3l-.17-.16a1.67 1.67 0 0 0-2.36 2.36l.65.65c.32.3.74.48 1.18.48h3.34v3.34c0 .44.17.86.48 1.17l1.67 1.67c.31.32.74.49 1.18.49h3.33v1.67c0 .92.75 1.66 1.67 1.66h1.67v3.34c0 .44.17.86.48 1.18l1.67 1.66c.31.31.74.49 1.18.49h8.33c.92 0 1.67-.75 1.67-1.67V50c0-.44-.18-.87-.49-1.18zM10 28.33c0 .92.75 1.67 1.67 1.67h1.66v10h-1.66a1.67 1.67 0 0 0 0 3.33h1.66v10h-1.66a1.67 1.67 0 0 0 0 3.34h1.66v10h-1.66a1.67 1.67 0 0 0 0 3.33h1.66v10h-1.66a1.67 1.67 0 1 0 0 3.33h1.66v8.34a1.67 1.67 0 0 0 3.34 0v-8.34h6.66v8.34a1.67 1.67 0 0 0 3.34 0v-8.34h6.66v8.34a1.67 1.67 0 1 0 3.34 0v-8.34h6.66v8.34a1.67 1.67 0 1 0 3.34 0v-8.34h1.66a1.67 1.67 0 0 0 0-3.33h-1.66V70h1.66a1.67 1.67 0 0 0 0-3.33h-1.66v-10a1.67 1.67 0 0 0 0-3.34 1.67 1.67 0 0 0-3.34 0h-6.66v-10h5a1.67 1.67 0 0 0 0-3.33h-5V30h.83a1.67 1.67 0 0 0 0-3.33H11.67c-.92 0-1.67.74-1.67 1.66zm26.67 28.34h6.66v10h-6.66zm0 13.33h6.66v10h-6.66zm-10-40h6.66v10h-6.66zm0 13.33h6.66v10h-6.66zm0 13.34h6.66v10h-6.66zm0 13.33h6.66v10h-6.66zm-10-40h6.66v10h-6.66zm0 13.33h6.66v10h-6.66zm0 13.34h6.66v10h-6.66zm0 13.33h6.66v10h-6.66zM35 23.33A1.67 1.67 0 0 0 35 20H25a1.67 1.67 0 0 0 0 3.33zm63.33 73.34h-25v-6.84A8.35 8.35 0 0 0 80 81.67c0-.22-.1-21.67-8.33-21.67-8.24 0-8.34 21.45-8.34 21.67A8.35 8.35 0 0 0 70 89.83v6.84H56.67V58.33a1.67 1.67 0 0 0-3.34 0v38.34H6.67V23.33h11.66c.92 0 1.67-.74 1.67-1.66v-5h15a1.67 1.67 0 0 0 0-3.34H18.33c-.92 0-1.66.75-1.66 1.67v5H5c-.92 0-1.67.75-1.67 1.67v75H1.67a1.67 1.67 0 1 0 0 3.33h96.66a1.67 1.67 0 0 0 0-3.33zm-31.66-15c0-8.3 2.23-18.34 5-18.34s5 10.03 5 18.34a5 5 0 0 1-10 0z"/></svg>