<svg xmlns="http://www.w3.org/2000/svg" width="19" height="18" viewBox="0 0 19 18"><path fill="#d6b46d" d="M18.99 14.2c.04.3-.05.55-.26.77l-2.54 2.52a1.78 1.78 0 0 1-1.35.51 8.79 8.79 0 0 1-3.16-.73c-.78-.33-1.66-.81-2.65-1.46-1-.65-2.05-1.54-3.17-2.67A19 19 0 0 1 2.24 8.4a11.76 11.76 0 0 1-1.16-3.28A4.5 4.5 0 0 1 1 4.18l.02-.39c.03-.17.08-.35.17-.54.09-.18.2-.33.33-.45L4.05.27A.84.84 0 0 1 4.66 0c.17 0 .31.05.44.14.13.1.23.22.32.36l2.04 3.87c.12.2.15.42.1.66-.05.25-.16.45-.33.61l-.93.94a.28.28 0 0 0-.07.12.45.45 0 0 0-.03.15c.06.26.17.57.35.91.15.3.39.68.7 1.12.32.43.77.94 1.36 1.51.57.59 1.08 1.04 1.52 1.37.45.32.82.56 1.12.71.29.15.52.25.68.28l.24.04c.03 0 .07 0 .12-.02.06-.02.1-.05.13-.07l1.08-1.1c.23-.21.5-.31.8-.31.22 0 .39.04.52.11h.02l3.68 2.18c.26.16.42.37.47.63z"/></svg>