<svg xmlns="http://www.w3.org/2000/svg" width="100" height="100" viewBox="0 0 100 100"><path fill="#57a92f" d="M31.67 76.67c-.92 0-1.67.74-1.67 1.66v20a1.67 1.67 0 0 0 3.33 0v-20c0-.92-.74-1.66-1.66-1.66zm-21.67-5V58.33a1.67 1.67 0 0 0-3.33 0v13.34a1.67 1.67 0 0 0 3.33 0zM25 90H1.67a1.67 1.67 0 0 0 0 3.33H25A1.67 1.67 0 0 0 25 90zm0 6.67H1.67a1.67 1.67 0 0 0 0 3.33H25a1.67 1.67 0 0 0 0-3.33zm6.67-40H18.33c-.92 0-1.66.74-1.66 1.66v13.34a1.67 1.67 0 0 0 3.33 0V70h10v1.67a1.67 1.67 0 0 0 3.33 0V58.33c0-.92-.74-1.66-1.66-1.66zm-1.67 10H20V60h10zm-5 16.66H1.67a1.67 1.67 0 0 0 0 3.34H25a1.67 1.67 0 0 0 0-3.34zm0-6.66H1.67a1.67 1.67 0 0 0 0 3.33H25a1.67 1.67 0 0 0 0-3.33zm31.67-43.34a6.67 6.67 0 1 0-13.35.02 6.67 6.67 0 0 0 13.35-.02zm-10 0a3.34 3.34 0 1 1 6.67.01 3.34 3.34 0 0 1-6.67 0zm11.66 63.34h-20a1.67 1.67 0 0 0 0 3.33h20a1.67 1.67 0 1 0 0-3.33zm-20-3.34h13.73a1.67 1.67 0 1 0 0-3.33H38.33a1.67 1.67 0 0 0 0 3.33zm38.34-40a23.36 23.36 0 0 0-23.34 23.34A23.36 23.36 0 0 0 76.67 100 23.36 23.36 0 0 0 100 76.67a23.36 23.36 0 0 0-23.33-23.34zm0 43.34c-11.03 0-20-8.98-20-20 0-11.03 8.97-20 20-20 11.02 0 20 8.97 20 20 0 11.02-8.98 20-20 20zm21.66-83.34H66.67a1.67 1.67 0 1 0 0 3.34h30v35.97L51.17 7.15a1.67 1.67 0 0 0-2.36 0L3.33 52.65V16.66h18.34c.92 0 1.66-.75 1.66-1.67V8.33c0-.92-.74-1.66-1.66-1.66H20V3.33h10v3.34h-1.67c-.92 0-1.66.74-1.66 1.66V15c0 .92.74 1.67 1.66 1.67h5a1.67 1.67 0 0 0 0-3.34H30V10h1.67c.92 0 1.66-.75 1.66-1.67V1.67C33.33.75 32.6 0 31.67 0H18.33c-.92 0-1.66.75-1.66 1.67v6.66c0 .92.74 1.67 1.66 1.67H20v3.33H1.67A1.66 1.66 0 0 0 0 15v41.67a1.67 1.67 0 0 0 2.85 1.18L50 10.69l47.15 47.16a1.67 1.67 0 0 0 2.85-1.18V15c0-.92-.75-1.67-1.67-1.67zm-21.66 55c1.83 0 3.33 1.5 3.33 3.34a1.67 1.67 0 1 0 3.33 0c0-3.1-2.13-5.69-5-6.43V65A1.67 1.67 0 1 0 75 65v.24a6.66 6.66 0 0 0 1.67 13.1 3.34 3.34 0 1 1-3.34 3.33 1.67 1.67 0 1 0-3.33 0c0 3.1 2.13 5.68 5 6.43v.23a1.67 1.67 0 1 0 3.33 0v-.23A6.66 6.66 0 0 0 76.67 75a3.34 3.34 0 0 1 0-6.67zM38.33 86.67h10.84a1.67 1.67 0 0 0 0-3.34H38.33a1.67 1.67 0 0 0 0 3.34zM40 58.33v13.34a1.67 1.67 0 0 0 3.33 0V60H55a1.67 1.67 0 1 0 0-3.33H41.67c-.92 0-1.67.74-1.67 1.66zm-3.33 20c0 .92.74 1.67 1.66 1.67h10a1.67 1.67 0 0 0 0-3.33h-10c-.92 0-1.66.74-1.66 1.66z"/></svg>